<svg height="512" viewBox="0 0 64 64" width="512" xmlns="http://www.w3.org/2000/svg"><g id="thermometer-check-temperature-healthy-pass"><path d="m61 49v12h-26v-10a4 4 0 0 1 4-4h20a2.006 2.006 0 0 1 2 2z" fill="#57a4ff"/><path d="m61 49v12h-4v-12a2.006 2.006 0 0 0 -2-2h4a2.006 2.006 0 0 1 2 2z" fill="#006df0"/><path d="m61 7v20a2.006 2.006 0 0 1 -2 2h-2.55a3.989 3.989 0 0 1 -2.56-.93l-4.89-4.07h2a2.006 2.006 0 0 0 2-2v-2a2.006 2.006 0 0 0 -2-2h-2v-9h-19a3 3 0 0 1 0-6h27a4 4 0 0 1 4 4z" fill="#ffcd00"/><path d="m61 7v20a2.006 2.006 0 0 1 -2 2h-2.55a3.467 3.467 0 0 1 -.85-.1 1.993 1.993 0 0 0 1.4-1.9v-20a4 4 0 0 0 -4-4h4a4 4 0 0 1 4 4z" fill="#ddb200"/><path d="m58 29v18h-14v-4a2.006 2.006 0 0 0 -2-2h-2l9-17 4.89 4.07a3.989 3.989 0 0 0 2.56.93z" fill="#ffc477"/><path d="m58 29v18h-4v-18.85a3.961 3.961 0 0 0 2.45.85z" fill="#ffa733"/><path d="m53 20v2a2.006 2.006 0 0 1 -2 2h-2l-4 7.56v-12.3l4-1.26h2a2.006 2.006 0 0 1 2 2z" fill="#ffc477"/><path d="m49 9v9l-4 1.26-15 4.74 3-5v-10z" fill="#ffc477"/><path d="m45 19.26v12.3l-5 9.44h-3.91a5 5 0 0 1 -4.47-2.76l-4.62-9.24 3-5z" fill="#bdfdff"/><circle cx="14" cy="50" fill="#46f8ff" r="11"/><path d="m25 50a11.017 11.017 0 0 1 -13 10.82 11 11 0 0 0 0-21.64 11.017 11.017 0 0 1 13 10.82z" fill="#00d7df"/><path d="m19 15v2a2.006 2.006 0 0 1 -2 2h-2v-6h2a2.006 2.006 0 0 1 2 2z" fill="#b6eb92"/><path d="m13 25h4v6h-4z" fill="#ffde55"/><path d="m19 15v2a2.006 2.006 0 0 1 -2 2h-2a2.006 2.006 0 0 0 2-2v-2a2.006 2.006 0 0 0 -2-2h2a2.006 2.006 0 0 1 2 2z" fill="#5eac24"/><path d="m15 25h2v6h-2z" fill="#ebbf00"/><path d="m15 19v2h-6v-8a2.006 2.006 0 0 1 2-2h4z" fill="#f1f2f2"/><path d="m13 31v4h-4v-14h4v4z" fill="#f1f2f2"/><path d="m62 27v-20a5 5 0 0 0 -5-5h-27a4 4 0 0 0 0 8h2v8.72l-5.86 9.77a.992.992 0 0 0 -.03.96l4.61 9.24a6.048 6.048 0 0 0 5.37 3.31h5.91a1 1 0 0 1 1 1v3h-4a5 5 0 0 0 -5 5v10a1 1 0 0 0 1 1h26a1 1 0 0 0 1-1v-12a3.009 3.009 0 0 0 -3-3v-16a3.009 3.009 0 0 0 3-3zm-25.91 13a4.027 4.027 0 0 1 -3.58-2.21l-4.37-8.75 2.52-4.2 13.34-4.21v10.68l-4.6 8.69zm11.91-22.73-15.78 4.98 1.64-2.74a1 1 0 0 0 .14-.51v-9h14zm1.15 1.73h1.85a1 1 0 0 1 1 1v2a1 1 0 0 1 -1 1h-2a.978.978 0 0 0 -.87.54l-.01-.01-2.12 4v-7.53zm-7.15 21h-.34l7.65-14.44 3.94 3.28a4.974 4.974 0 0 0 3.2 1.16h.55v16h-12v-3a3.009 3.009 0 0 0 -3-3zm18 9v11h-24v-9a3.009 3.009 0 0 1 3-3h20a1 1 0 0 1 1 1zm-3.55-21a3 3 0 0 1 -1.92-.7l-2.86-2.38a3 3 0 0 0 2.33-2.92v-2a3.009 3.009 0 0 0 -3-3h-1v-8a1 1 0 0 0 -1-1h-19a2 2 0 0 1 0-4h27a3.009 3.009 0 0 1 3 3v20a1 1 0 0 1 -1 1z"/><path d="m17 12h-1v-1a1 1 0 0 0 -1-1h-4a3.009 3.009 0 0 0 -3 3v22a1 1 0 0 0 1 1h4a1 1 0 0 0 1-1v-3h3a1 1 0 0 0 1-1v-6a1 1 0 0 0 -1-1h-3v-2h1a1 1 0 0 0 1-1v-1h1a3.009 3.009 0 0 0 3-3v-2a3.009 3.009 0 0 0 -3-3zm-5 22h-2v-12h2zm4-8v4h-2v-4zm-2-6h-4v-7a1 1 0 0 1 1-1h3zm4-3a1 1 0 0 1 -1 1h-1v-4h1a1 1 0 0 1 1 1z"/><path d="m22 15h4v2h-4z"/><path d="m21.764 11h4.472v2h-4.472z" transform="matrix(.894 -.447 .447 .894 -2.833 12)"/><path d="m23 17.764h2v4.472h-2z" transform="matrix(.447 -.894 .894 .447 -4.622 32.522)"/><path d="m14 38a12 12 0 1 0 12 12 12.01 12.01 0 0 0 -12-12zm0 22a10 10 0 1 1 10-10 10.016 10.016 0 0 1 -10 10z"/><path d="m13 52.586-3.293-3.293-1.414 1.414 4 4a1 1 0 0 0 1.414 0l8-8-1.414-1.414z"/><path d="m40 15a2 2 0 0 1 2 2h2a4 4 0 0 0 -8 0h2a2 2 0 0 1 2-2z"/></g></svg>